<svg width="25" height="25" viewBox="0 0 25 25" fill="none" xmlns="http://www.w3.org/2000/svg">
<path d="M0.078125 3.23958C0.235653 2.31926 0.622899 1.49753 1.17644 0.908976C1.72998 0.320424 2.41701 -6.35301e-05 3.125 9.44612e-09H21.875C22.583 -6.35301e-05 23.27 0.320424 23.8236 0.908976C24.3771 1.49753 24.7643 2.31926 24.9219 3.23958L12.5 13.3625L0.078125 3.23958ZM0 5.61875V20.4187L9.06719 13.0062L0 5.61875ZM10.5641 14.2292L0.298437 22.6187C0.552073 23.3318 0.952385 23.9342 1.45278 24.3558C1.95318 24.7774 2.53309 25.0008 3.125 25H21.875C22.4668 25.0002 23.0465 24.7763 23.5466 24.3544C24.0467 23.9324 24.4467 23.3298 24.7 22.6167L14.4344 14.2271L12.5 15.8042L10.5641 14.2271V14.2292ZM15.9328 13.0083L25 20.4187V5.61875L15.9328 13.0062V13.0083Z" fill="#F5F5F5"/>
</svg>
