<svg width="25" height="25" viewBox="0 0 25 25" fill="none" xmlns="http://www.w3.org/2000/svg">
<path d="M0.078125 5.55469C0.235653 4.86444 0.622899 4.24815 1.17644 3.80673C1.72998 3.36532 2.41701 3.12495 3.125 3.125H21.875C22.583 3.12495 23.27 3.36532 23.8236 3.80673C24.3771 4.24815 24.7643 4.86444 24.9219 5.55469L12.5 13.1469L0.078125 5.55469ZM0 7.33906V18.4391L9.06719 12.8797L0 7.33906ZM10.5641 13.7969L0.298438 20.0891C0.552073 20.6239 0.952385 21.0757 1.45278 21.3918C1.95318 21.708 2.53309 21.8756 3.125 21.875H21.875C22.4668 21.8751 23.0465 21.7072 23.5466 21.3908C24.0467 21.0743 24.4467 20.6224 24.7 20.0875L14.4344 13.7953L12.5 14.9781L10.5641 13.7953V13.7969ZM15.9328 12.8813L25 18.4391V7.33906L15.9328 12.8797V12.8813Z" fill="#2A2A2A"/>
</svg>
