<svg width="80" height="80" viewBox="0 0 80 80" fill="none" xmlns="http://www.w3.org/2000/svg">
<path d="M0.25 10.3667C0.754091 7.42162 1.99328 4.79209 3.76461 2.90872C5.53594 1.02536 7.73442 -0.000203296 10 3.02276e-08H70C72.2656 -0.000203296 74.4641 1.02536 76.2354 2.90872C78.0067 4.79209 79.2459 7.42162 79.75 10.3667L40 42.76L0.25 10.3667ZM0 17.98V65.34L29.015 41.62L0 17.98ZM33.805 45.5333L0.955 72.38C1.76663 74.6619 3.04763 76.5895 4.64891 77.9385C6.25018 79.2875 8.10587 80.0024 10 80H70C71.8938 80.0006 73.7488 79.2841 75.3492 77.9339C76.9495 76.5838 78.2294 74.6554 79.04 72.3733L46.19 45.5267L40 50.5733L33.805 45.5267V45.5333ZM50.985 41.6267L80 65.34V17.98L50.985 41.62V41.6267Z" fill="#221FC4"/>
</svg>
