<svg width="25" height="26" viewBox="0 0 25 26" fill="none" xmlns="http://www.w3.org/2000/svg">
<path d="M12.5 0.110352C5.59375 0.110352 0 5.84641 0 12.9284C0 18.6003 3.57812 23.3911 8.54687 25.0894C9.17187 25.2016 9.40625 24.8171 9.40625 24.4806C9.40625 24.1762 9.39063 23.1667 9.39063 22.0932C6.25 22.6861 5.4375 21.3081 5.1875 20.5871C5.04687 20.2186 4.4375 19.081 3.90625 18.7766C3.46875 18.5362 2.84375 17.9434 3.89063 17.9274C4.875 17.9114 5.57813 18.8567 5.8125 19.2412C6.9375 21.1799 8.73438 20.6352 9.45313 20.2987C9.5625 19.4655 9.89062 18.9047 10.25 18.5843C7.46875 18.2638 4.5625 17.1583 4.5625 12.2554C4.5625 10.8615 5.04688 9.70783 5.84375 8.81057C5.71875 8.49012 5.28125 7.17628 5.96875 5.4138C5.96875 5.4138 7.01563 5.07733 9.40625 6.72765C10.4062 6.43924 11.4688 6.29504 12.5313 6.29504C13.5938 6.29504 14.6563 6.43924 15.6563 6.72765C18.0469 5.06131 19.0938 5.4138 19.0938 5.4138C19.7813 7.17628 19.3438 8.49012 19.2188 8.81057C20.0156 9.70783 20.5 10.8454 20.5 12.2554C20.5 17.1743 17.5781 18.2638 14.7969 18.5843C15.25 18.9849 15.6406 19.7539 15.6406 20.9556C15.6406 22.67 15.625 24.048 15.625 24.4806C15.625 24.8171 15.8594 25.2176 16.4844 25.0894C18.966 24.2306 21.1224 22.5953 22.65 20.4137C24.1777 18.2321 24.9996 15.6141 25 12.9284C25 5.84641 19.4063 0.110352 12.5 0.110352Z" fill="#F5F5F5"/>
</svg>
