<svg width="80" height="80" viewBox="0 0 80 80" fill="none" xmlns="http://www.w3.org/2000/svg">
<path d="M40 0C17.9 0 0 18.3528 0 41.0118C0 59.1595 11.45 74.4876 27.35 79.9217C29.35 80.2805 30.1 79.0502 30.1 77.9736C30.1 76.9996 30.05 73.7699 30.05 70.3352C20 72.232 17.4 67.8232 16.6 65.5163C16.15 64.3372 14.2 60.6974 12.5 59.7234C11.1 58.9544 9.1 57.0576 12.45 57.0063C15.6 56.9551 17.85 59.9797 18.6 61.21C22.2 67.4131 27.95 65.6701 30.25 64.5935C30.6 61.9277 31.65 60.1335 32.8 59.1082C23.9 58.0829 14.6 54.5456 14.6 38.8586C14.6 34.3986 16.15 30.7075 18.7 27.8367C18.3 26.8114 16.9 22.6077 19.1 16.9686C19.1 16.9686 22.45 15.8921 30.1 21.1723C33.3 20.2496 36.7 19.7882 40.1 19.7882C43.5 19.7882 46.9 20.2496 50.1 21.1723C57.75 15.8408 61.1 16.9686 61.1 16.9686C63.3 22.6077 61.9 26.8114 61.5 27.8367C64.05 30.7075 65.6 34.3473 65.6 38.8586C65.6 54.5969 56.25 58.0829 47.35 59.1082C48.8 60.3898 50.05 62.8505 50.05 66.6954C50.05 72.1807 50 76.5894 50 77.9736C50 79.0502 50.75 80.3318 52.75 79.9217C60.6911 77.1738 67.5917 71.9415 72.4801 64.9614C77.3685 57.9813 79.9986 49.6049 80 41.0118C80 18.3528 62.1 0 40 0Z" fill="#221FC4"/>
</svg>
