<svg width="139" height="32" viewBox="0 0 139 32" fill="none" xmlns="http://www.w3.org/2000/svg">
<g clip-path="url(#clip0_334_39)">
<path d="M0.591675 31.4846H5.9959V17.5557C5.9959 14.8086 7.81879 12.8125 10.4234 12.8125C12.9408 12.8125 14.5036 14.3795 14.5036 16.9118V31.4846H19.7556V17.4266C19.7556 14.7014 21.5352 12.8125 24.1392 12.8125C26.7872 12.8125 28.2628 14.4004 28.2628 17.1903V31.4846H33.667V15.8816C33.667 11.3324 30.6935 8.30561 26.1577 8.30561C22.8369 8.30561 20.1029 10.066 18.9956 12.8768H18.865C18.0189 9.95828 15.6965 8.30561 12.4413 8.30561C9.3161 8.30561 6.8854 10.0445 5.887 12.6845H5.77866V8.73526H0.591675V31.4846ZM45.4955 27.8145C43.1521 27.8145 41.5898 26.6343 41.5898 24.7669C41.5898 22.9647 43.0865 21.8055 45.6911 21.6335L51.0081 21.3115V23.0499C51.0081 25.797 48.5557 27.8145 45.4955 27.8145ZM43.8677 31.8495C46.8195 31.8495 49.7064 30.3259 51.0303 27.8579H51.1387V31.4846H56.3473V15.8173C56.3473 11.2461 52.636 8.26276 46.9284 8.26276C41.0686 8.26276 37.4012 11.3104 37.1623 15.5596H42.1753C42.5226 13.6713 44.1505 12.4477 46.7112 12.4477C49.3808 12.4477 51.0087 13.8213 51.0087 16.2036V17.8348L44.9316 18.1782C39.3324 18.5216 36.1855 20.9467 36.1855 24.9817C36.1855 29.0804 39.4191 31.8495 43.8682 31.8495H43.8677ZM80.0694 16.8475C79.7004 12.062 75.9458 8.26276 69.8687 8.26276C63.185 8.26276 58.8441 12.834 58.8441 20.1094C58.8441 27.4925 63.1844 31.9346 69.9126 31.9346C75.6852 31.9346 79.6571 28.5864 80.091 23.4999H74.9907C74.4918 26.0756 72.7117 27.6206 69.9776 27.6206C66.5485 27.6206 64.335 24.8734 64.335 20.1089C64.335 15.4305 66.5268 12.5972 69.9343 12.5972C72.8206 12.5972 74.5346 14.4212 74.969 16.8469H80.0694V16.8475ZM96.7593 0C87.6231 0 81.8933 6.15957 81.8933 16.0107C81.8933 25.8619 87.6226 32 96.7598 32C105.875 32 111.605 25.8619 111.605 16.0107C111.605 6.15957 105.875 0.000549415 96.7593 0.000549415V0ZM96.7593 4.72173C102.337 4.72173 105.896 9.10008 105.896 16.0107C105.896 22.8999 102.337 27.2783 96.7598 27.2783C91.1606 27.2783 87.6231 22.8999 87.6231 16.0107C87.6231 9.10008 91.1606 4.72173 96.7598 4.72173H96.7593ZM113.884 22.7713C114.123 28.4798 118.854 32 126.059 32C133.634 32 138.408 28.3084 138.408 22.428C138.408 17.8139 135.717 15.2168 129.358 13.779L125.755 12.9636C121.914 12.062 120.33 10.8599 120.33 8.79955C120.33 6.2244 122.718 4.50746 126.255 4.50746C129.836 4.50746 132.288 6.24583 132.549 9.14293H137.888C137.757 3.69212 133.2 0.000549415 126.298 0.000549415C119.483 0.000549415 114.644 3.71299 114.644 9.20722C114.644 13.6284 117.378 16.3755 123.151 17.6848L127.209 18.6298C131.16 19.5523 132.765 20.8401 132.765 23.0719C132.765 25.6476 130.139 27.4931 126.363 27.4931C122.544 27.4931 119.657 25.6261 119.31 22.7713H113.884Z" fill="white"/>
</g>
<defs>
<clipPath id="clip0_334_39">
<rect width="139" height="32" fill="white"/>
</clipPath>
</defs>
</svg>
