<svg width="246" height="30" viewBox="0 0 246 30" fill="none" xmlns="http://www.w3.org/2000/svg">
<path d="M4.04797 26.2282H12.832V28.9883H0.771973V2.99112H4.04797V26.2282Z" fill="white"/>
<path d="M34.311 17.9852C34.311 18.6317 34.275 19.3155 34.203 20.0366H18.435C18.555 22.0508 19.215 23.6297 20.415 24.7736C21.639 25.8925 23.115 26.452 24.843 26.452C26.259 26.452 27.435 26.1163 28.371 25.4449C29.331 24.7487 30.003 23.8287 30.387 22.6848H33.915C33.387 24.6492 32.331 26.2531 30.747 27.4964C29.163 28.7148 27.195 29.324 24.843 29.324C22.971 29.324 21.291 28.8889 19.803 28.0185C18.339 27.1482 17.187 25.9174 16.347 24.326C15.507 22.7097 15.087 20.8448 15.087 18.7312C15.087 16.6176 15.495 14.7651 16.311 13.1737C17.127 11.5823 18.267 10.3638 19.731 9.51839C21.219 8.64809 22.923 8.21294 24.843 8.21294C26.715 8.21294 28.371 8.63566 29.811 9.4811C31.251 10.3265 32.355 11.4952 33.123 12.9872C33.915 14.4543 34.311 16.1203 34.311 17.9852ZM30.927 17.2765C30.927 15.9835 30.651 14.877 30.099 13.9569C29.547 13.012 28.791 12.3034 27.831 11.8309C26.895 11.3336 25.851 11.0849 24.699 11.0849C23.043 11.0849 21.627 11.632 20.451 12.7261C19.299 13.8202 18.639 15.337 18.471 17.2765H30.927Z" fill="white"/>
<path d="M47.2393 29.324C45.3913 29.324 43.7113 28.8889 42.1993 28.0185C40.7113 27.1482 39.5353 25.9174 38.6713 24.326C37.8313 22.7097 37.4113 20.8448 37.4113 18.7312C37.4113 16.6424 37.8433 14.8024 38.7073 13.211C39.5953 11.5947 40.7953 10.3638 42.3073 9.51839C43.8193 8.64809 45.5113 8.21294 47.3833 8.21294C49.2553 8.21294 50.9473 8.64809 52.4593 9.51839C53.9713 10.3638 55.1593 11.5823 56.0233 13.1737C56.9113 14.7651 57.3553 16.6176 57.3553 18.7312C57.3553 20.8448 56.8993 22.7097 55.9873 24.326C55.0993 25.9174 53.8873 27.1482 52.3513 28.0185C50.8153 28.8889 49.1113 29.324 47.2393 29.324ZM47.2393 26.3401C48.4153 26.3401 49.5193 26.0542 50.5513 25.4822C51.5833 24.9103 52.4113 24.0525 53.0353 22.9086C53.6833 21.7648 54.0073 20.3723 54.0073 18.7312C54.0073 17.09 53.6953 15.6975 53.0713 14.5537C52.4473 13.4099 51.6313 12.5645 50.6233 12.0174C49.6153 11.4455 48.5233 11.1595 47.3473 11.1595C46.1473 11.1595 45.0433 11.4455 44.0353 12.0174C43.0513 12.5645 42.2593 13.4099 41.6593 14.5537C41.0593 15.6975 40.7593 17.09 40.7593 18.7312C40.7593 20.3972 41.0473 21.8021 41.6233 22.9459C42.2233 24.0898 43.0153 24.9476 43.9993 25.5195C44.9833 26.0666 46.0633 26.3401 47.2393 26.3401Z" fill="white"/>
<path d="M71.2746 8.17564C73.6746 8.17564 75.6186 8.93405 77.1066 10.4509C78.5946 11.9428 79.3386 14.1061 79.3386 16.9408V28.9883H76.0986V17.4257C76.0986 15.3867 75.6066 13.8326 74.6226 12.7634C73.6386 11.6693 72.2946 11.1222 70.5906 11.1222C68.8626 11.1222 67.4826 11.6817 66.4506 12.8007C65.4426 13.9196 64.9386 15.5484 64.9386 17.6868V28.9883H61.6626V8.54863H64.9386V11.4579C65.5866 10.4136 66.4626 9.60542 67.5666 9.03351C68.6946 8.4616 69.9306 8.17564 71.2746 8.17564Z" fill="white"/>
<path d="M83.4659 18.6939C83.4659 16.6051 83.8739 14.7775 84.6899 13.211C85.5059 11.6196 86.6219 10.3887 88.0379 9.51839C89.4779 8.64809 91.0739 8.21294 92.8259 8.21294C94.5539 8.21294 96.0539 8.59836 97.3259 9.3692C98.5979 10.14 99.5459 11.1098 100.17 12.2785V8.54863H103.482V28.9883H100.17V25.1838C99.5219 26.3774 98.5499 27.372 97.2539 28.1677C95.9819 28.9386 94.4939 29.324 92.7899 29.324C91.0379 29.324 89.4539 28.8764 88.0379 27.9813C86.6219 27.0861 85.5059 25.8304 84.6899 24.2141C83.8739 22.5978 83.4659 20.7577 83.4659 18.6939ZM100.17 18.7312C100.17 17.1895 99.8699 15.8467 99.2699 14.7029C98.6699 13.5591 97.8539 12.6888 96.8219 12.092C95.8139 11.4704 94.6979 11.1595 93.4739 11.1595C92.2499 11.1595 91.1339 11.4579 90.1259 12.0547C89.1179 12.6515 88.3139 13.5218 87.7139 14.6656C87.1139 15.8094 86.8139 17.1522 86.8139 18.6939C86.8139 20.2604 87.1139 21.628 87.7139 22.7967C88.3139 23.9406 89.1179 24.8233 90.1259 25.4449C91.1339 26.0417 92.2499 26.3401 93.4739 26.3401C94.6979 26.3401 95.8139 26.0417 96.8219 25.4449C97.8539 24.8233 98.6699 23.9406 99.2699 22.7967C99.8699 21.628 100.17 20.2729 100.17 18.7312Z" fill="white"/>
<path d="M112.294 11.8682C112.87 10.6995 113.686 9.79192 114.742 9.14541C115.822 8.4989 117.13 8.17564 118.666 8.17564V11.6817H117.802C114.13 11.6817 112.294 13.7456 112.294 17.8733V28.9883H109.018V8.54863H112.294V11.8682Z" fill="white"/>
<path d="M121.224 18.6939C121.224 16.6051 121.632 14.7775 122.448 13.211C123.264 11.6196 124.38 10.3887 125.796 9.51839C127.236 8.64809 128.844 8.21294 130.62 8.21294C132.156 8.21294 133.584 8.58593 134.904 9.3319C136.224 10.053 137.232 11.0103 137.928 12.2039V1.38728H141.24V28.9883H137.928V25.1465C137.28 26.365 136.32 27.372 135.048 28.1677C133.776 28.9386 132.288 29.324 130.584 29.324C128.832 29.324 127.236 28.8764 125.796 27.9813C124.38 27.0861 123.264 25.8304 122.448 24.2141C121.632 22.5978 121.224 20.7577 121.224 18.6939ZM137.928 18.7312C137.928 17.1895 137.628 15.8467 137.028 14.7029C136.428 13.5591 135.612 12.6888 134.58 12.092C133.572 11.4704 132.456 11.1595 131.232 11.1595C130.008 11.1595 128.892 11.4579 127.884 12.0547C126.876 12.6515 126.072 13.5218 125.472 14.6656C124.872 15.8094 124.572 17.1522 124.572 18.6939C124.572 20.2604 124.872 21.628 125.472 22.7967C126.072 23.9406 126.876 24.8233 127.884 25.4449C128.892 26.0417 130.008 26.3401 131.232 26.3401C132.456 26.3401 133.572 26.0417 134.58 25.4449C135.612 24.8233 136.428 23.9406 137.028 22.7967C137.628 21.628 137.928 20.2729 137.928 18.7312Z" fill="white"/>
<path d="M155.38 29.324C153.532 29.324 151.852 28.8889 150.34 28.0185C148.852 27.1482 147.676 25.9174 146.812 24.326C145.972 22.7097 145.552 20.8448 145.552 18.7312C145.552 16.6424 145.984 14.8024 146.848 13.211C147.736 11.5947 148.936 10.3638 150.448 9.51839C151.96 8.64809 153.652 8.21294 155.524 8.21294C157.396 8.21294 159.088 8.64809 160.6 9.51839C162.112 10.3638 163.3 11.5823 164.164 13.1737C165.052 14.7651 165.496 16.6176 165.496 18.7312C165.496 20.8448 165.04 22.7097 164.128 24.326C163.24 25.9174 162.028 27.1482 160.492 28.0185C158.956 28.8889 157.252 29.324 155.38 29.324ZM155.38 26.3401C156.556 26.3401 157.66 26.0542 158.692 25.4822C159.724 24.9103 160.552 24.0525 161.176 22.9086C161.824 21.7648 162.148 20.3723 162.148 18.7312C162.148 17.09 161.836 15.6975 161.212 14.5537C160.588 13.4099 159.772 12.5645 158.764 12.0174C157.756 11.4455 156.664 11.1595 155.488 11.1595C154.288 11.1595 153.184 11.4455 152.176 12.0174C151.192 12.5645 150.4 13.4099 149.8 14.5537C149.2 15.6975 148.9 17.09 148.9 18.7312C148.9 20.3972 149.188 21.8021 149.764 22.9459C150.364 24.0898 151.156 24.9476 152.14 25.5195C153.124 26.0666 154.204 26.3401 155.38 26.3401Z" fill="white"/>
<path d="M192.613 28.9883L186.637 18.3582H182.677V28.9883H179.401V2.99112H187.501C189.397 2.99112 190.993 3.32681 192.289 3.99819C193.609 4.66956 194.593 5.57717 195.241 6.72099C195.889 7.86482 196.213 9.17027 196.213 10.6374C196.213 12.4277 195.709 14.0067 194.701 15.3743C193.717 16.7419 192.229 17.6495 190.237 18.0971L196.537 28.9883H192.613ZM182.677 15.6354H187.501C189.277 15.6354 190.609 15.1878 191.497 14.2926C192.385 13.3726 192.829 12.1542 192.829 10.6374C192.829 9.09568 192.385 7.90212 191.497 7.05668C190.633 6.21124 189.301 5.78852 187.501 5.78852H182.677V15.6354Z" fill="white"/>
<path d="M218.799 8.54863V28.9883H215.523V25.9671C214.899 27.0115 214.023 27.8321 212.895 28.4288C211.791 29.0007 210.567 29.2867 209.223 29.2867C207.687 29.2867 206.307 28.9634 205.083 28.3169C203.859 27.6456 202.887 26.6509 202.167 25.333C201.471 24.0152 201.123 22.4113 201.123 20.5215V8.54863H204.363V20.0739C204.363 22.0881 204.855 23.6422 205.839 24.7363C206.823 25.8055 208.167 26.3401 209.871 26.3401C211.623 26.3401 213.003 25.7806 214.011 24.6617C215.019 23.5427 215.523 21.914 215.523 19.7755V8.54863H218.799Z" fill="white"/>
<path d="M226.023 5.22904C225.399 5.22904 224.871 5.00525 224.439 4.55767C224.007 4.11008 223.791 3.56303 223.791 2.91652C223.791 2.27001 224.007 1.72297 224.439 1.27538C224.871 0.827796 225.399 0.604004 226.023 0.604004C226.623 0.604004 227.127 0.827796 227.535 1.27538C227.967 1.72297 228.183 2.27001 228.183 2.91652C228.183 3.56303 227.967 4.11008 227.535 4.55767C227.127 5.00525 226.623 5.22904 226.023 5.22904ZM227.607 8.54863V28.9883H224.331V8.54863H227.607Z" fill="white"/>
<path d="M235.638 26.1909H245.322V28.9883H231.894V26.1909L241.47 11.3087H231.966V8.54863H245.25V11.3087L235.638 26.1909Z" fill="white"/>
</svg>
